<?xml version="1.0" standalone="no"?>
<!DOCTYPE svg PUBLIC "-//W3C//DTD SVG 20010904//EN"
 "http://www.w3.org/TR/2001/REC-SVG-20010904/DTD/svg10.dtd">
<svg version="1.0" xmlns="http://www.w3.org/2000/svg" x="0px" y="0px"
 viewBox="0 0 200 200" style="enable-background:new 0 0 200 200;"
 preserveAspectRatio="xMidYMid meet">

<g transform="translate(0.000000,198.000000) scale(0.100000,-0.100000)"
fill="#000000" stroke="none">
<path d="M490 1840 l0 -40 188 0 c245 0 331 -10 407 -49 142 -70 228 -218 229
-390 0 -56 -6 -106 -18 -143 l-19 -58 24 -19 c13 -11 27 -20 30 -21 14 -1 39
76 50 152 32 228 -61 438 -237 538 -100 56 -186 70 -433 70 l-221 0 0 -40z"/>
<path d="M682 1718 l3 -33 125 -6 c172 -9 208 -20 282 -87 81 -73 118 -211 89
-328 -11 -41 -10 -48 6 -60 38 -29 50 -18 68 63 15 66 15 87 5 152 -15 92 -21
109 -65 175 -40 61 -99 106 -176 135 -45 18 -77 21 -197 21 l-143 0 3 -32z"/>
<path d="M830 1591 l0 -41 48 -1 c133 -2 215 -113 182 -250 -14 -56 -7 -69 37
-69 19 0 25 10 39 55 17 59 13 106 -12 179 -34 96 -115 154 -226 163 l-68 6 0
-42z"/>
<path d="M472 1158 l3 -43 108 -3 107 -3 0 46 0 45 -111 0 -110 0 3 -42z"/>
<path d="M732 1158 l3 -43 80 0 80 0 3 43 3 42 -86 0 -86 0 3 -42z"/>
<path d="M937 1193 c-9 -9 -9 -55 1 -69 4 -6 40 -14 80 -17 221 -18 372 -194
372 -432 0 -183 -95 -332 -256 -399 -67 -28 -76 -29 -284 -35 l-215 -6 0 -40
0 -40 225 1 c216 1 228 2 291 27 90 34 136 65 195 130 64 70 97 132 118 224
69 304 -91 589 -364 652 -51 12 -153 14 -163 4z"/>
<path d="M680 1036 c0 -44 1 -46 30 -46 23 0 31 5 36 24 10 43 1 61 -34 64
-32 3 -32 3 -32 -42z"/>
<path d="M784 1066 c-3 -8 -4 -27 -2 -43 l3 -28 130 -5 c157 -7 218 -29 279
-103 127 -155 88 -384 -82 -485 l-47 -27 -282 -3 -283 -3 0 -45 0 -45 293 3
c286 3 293 4 342 27 28 14 64 36 80 49 124 101 177 294 123 453 -26 78 -40
101 -92 157 -78 83 -168 112 -347 112 -85 0 -111 -3 -115 -14z"/>
<path d="M377 954 c-4 -4 -7 -25 -7 -46 l0 -38 51 0 50 0 -3 43 c-3 41 -4 42
-43 45 -23 2 -44 0 -48 -4z"/>
<path d="M511 946 c-20 -24 -10 -70 17 -74 22 -3 23 0 20 39 -3 45 -17 59 -37
35z"/>
<path d="M585 937 c-16 -63 -20 -62 210 -67 232 -6 260 -12 308 -69 88 -105
38 -272 -91 -302 -20 -5 -158 -9 -305 -9 l-268 0 3 -42 3 -43 300 0 c335 0
340 1 413 73 54 55 77 114 76 202 -1 119 -51 202 -152 252 -44 21 -62 23 -269
26 l-222 4 -6 -25z"/>
<path d="M320 445 l0 -46 38 3 c36 3 37 4 37 43 0 39 -1 40 -37 43 l-38 3 0
-46z"/>
<path d="M214 346 c-8 -35 -1 -60 19 -64 14 -3 17 4 17 42 0 34 -4 46 -15 46
-8 0 -17 -11 -21 -24z"/>
<path d="M297 364 c-4 -4 -7 -25 -7 -46 l0 -38 86 0 85 0 -3 43 -3 42 -75 3
c-42 1 -79 0 -83 -4z"/>
<path d="M112 198 l3 -43 240 0 240 0 3 43 3 42 -246 0 -246 0 3 -42z"/>
</g>
</svg>
