<?xml version="1.0" encoding="utf-8"?>
<!-- Generator: Adobe Illustrator 23.0.6, SVG Export Plug-In . SVG Version: 6.00 Build 0)  -->
<svg version="1.1" id="Layer_1" xmlns="http://www.w3.org/2000/svg" xmlns:xlink="http://www.w3.org/1999/xlink" x="0px" y="0px"
	 viewBox="0 0 200 200" style="enable-background:new 0 0 200 200;" xml:space="preserve">
<style type="text/css">
	.st0{clip-path:url(#SVGID_2_);}
	.st1{clip-path:url(#SVGID_4_);}
	.st2{clip-path:url(#SVGID_6_);fill:url(#SVGID_7_);}
	.st3{clip-path:url(#SVGID_9_);fill:url(#SVGID_10_);}
	.st4{clip-path:url(#SVGID_12_);fill:#101a51;}
	.st5{clip-path:url(#SVGID_14_);fill:url(#SVGID_15_);}
	.st6{clip-path:url(#SVGID_17_);fill:url(#SVGID_18_);}
	.st7{clip-path:url(#SVGID_20_);fill:url(#SVGID_21_);}
	.st8{opacity:0.39;clip-path:url(#SVGID_23_);}
	.st9{clip-path:url(#SVGID_25_);}
	.st10{filter:url(#Adobe_OpacityMaskFilter);}
	.st11{clip-path:url(#SVGID_27_);}
	.st12{enable-background:new    ;}
	.st13{clip-path:url(#SVGID_30_);fill:url(#SVGID_31_);}
	.st14{clip-path:url(#SVGID_27_);mask:url(#SVGID_28_);}
	.st15{clip-path:url(#SVGID_33_);}
	.st16{clip-path:url(#SVGID_35_);fill:url(#SVGID_36_);}
	.st17{clip-path:url(#SVGID_38_);}
	.st18{filter:url(#Adobe_OpacityMaskFilter_1_);}
	.st19{clip-path:url(#SVGID_40_);}
	.st20{clip-path:url(#SVGID_43_);fill:url(#SVGID_44_);}
	.st21{clip-path:url(#SVGID_40_);mask:url(#SVGID_41_);}
	.st22{clip-path:url(#SVGID_46_);}
	.st23{clip-path:url(#SVGID_48_);fill:url(#SVGID_49_);}
</style>
<g id="Artwork_1_1_">
	<g>
		<defs>
			<rect id="SVGID_1_" x="10.9" y="0" width="178.2" height="200"/>
		</defs>
		<clipPath id="SVGID_2_">
			<use xlink:href="#SVGID_1_"  style="overflow:visible;"/>
		</clipPath>
		<g class="st0">
			<defs>
				<rect id="SVGID_3_" x="10.9" y="0" width="178.2" height="200"/>
			</defs>
			<clipPath id="SVGID_4_">
				<use xlink:href="#SVGID_3_"  style="overflow:visible;"/>
			</clipPath>
			<g class="st1">
				<defs>
					<path id="SVGID_5_" d="M42.5,82.5c0,0,20.2,57.2,20.8,67.5c0,0.8-0.1,1.3-0.1,1.3c0.1-0.3,0.1-0.7,0.1-1.3
						c0.1-0.8,0.1-1.9,0.1-3.1c-0.2-5.7-20.1-68.7-20.1-68.7L42.5,82.5z"/>
				</defs>
				<clipPath id="SVGID_6_">
					<use xlink:href="#SVGID_5_"  style="overflow:visible;"/>
				</clipPath>
				
					<linearGradient id="SVGID_7_" gradientUnits="userSpaceOnUse" x1="1.8407" y1="15.077" x2="3.5827" y2="15.077" gradientTransform="matrix(10.903 -0.3109 0.3109 10.903 18.6543 -48.7705)">
					<stop  offset="0" style="stop-color:#C6C6C5"/>
					<stop  offset="0.3244" style="stop-color:#CACAC9"/>
					<stop  offset="0.6385" style="stop-color:#D5D5D5"/>
					<stop  offset="0.9476" style="stop-color:#E8E8E8"/>
					<stop  offset="1" style="stop-color:#ECECEC"/>
				</linearGradient>
				<polygon class="st2" points="42.5,151.9 65.4,151.2 63.3,77.7 40.4,78.3 				"/>
			</g>
			<g class="st1">
				<defs>
					<path id="SVGID_8_" d="M11.8,86.2l0.1-0.3c0-0.1-0.1-0.2-0.1-0.4C11.7,85.8,11.7,86,11.8,86.2 M133,0
						c-8.5,0-18.2,6.9-24.4,10.6c-4.8,2.9-78.9,46.9-78.9,46.9C17.8,64.3,11,70.8,10.9,79.8V80c0,1.8,0.3,3.6,0.8,5.6
						C11.4,75.2,25,69,32.2,64.8c0,0,74.3-44.3,78.7-46.9c9.5-5.7,28.4-19.8,35.5,2.1c5.4,16.5,11.9,35.5,20.8,61.8l0.9-3.8
						c-9.7-28.6-14.9-47.1-20.8-65.1C144.1,3.3,138.9,0,133.2,0H133z"/>
				</defs>
				<clipPath id="SVGID_9_">
					<use xlink:href="#SVGID_8_"  style="overflow:visible;"/>
				</clipPath>
				
					<linearGradient id="SVGID_10_" gradientUnits="userSpaceOnUse" x1="7.388306e-02" y1="1.4853" x2="1.8159" y2="1.4853" gradientTransform="matrix(90.1747 -2.571 2.571 90.1747 -0.5857 -89.3426)">
					<stop  offset="0" style="stop-color:#29235C"/>
					<stop  offset="5.573654e-02" style="stop-color:#2C1753"/>
					<stop  offset="0.1648" style="stop-color:#300647"/>
					<stop  offset="0.2454" style="stop-color:#310042"/>
					<stop  offset="0.4294" style="stop-color:#ECECEC"/>
					<stop  offset="0.7853" style="stop-color:#391E67"/>
					<stop  offset="1" style="stop-color:#38014A"/>
				</linearGradient>
				<polygon class="st3" points="11,90.7 170.6,86.1 167.9,-6.4 8.4,-1.9 				"/>
			</g>
			<g class="st1">
				<defs>
					<rect id="SVGID_11_" x="10.9" y="0" width="178.2" height="200"/>
				</defs>
				<clipPath id="SVGID_12_">
					<use xlink:href="#SVGID_11_"  style="overflow:visible;"/>
				</clipPath>
				<path class="st4" d="M128.3,98.8c0,0-4.2,0.7-1.6-8.6c1.9-7.3-5-13.4-5-13.4s-11.6-9.2-25.5-2l0.1-0.1
					c-11.8,6.2-14,17.1-14,17.1s-3.2,7.6,3.3,16.6c6.1,6.5,13.4,5.1,13.2,8.1c0.8,2.5-2.8,4.9-5.6,7.1c-3.2,2.6-6.1,4.5-13.2,9.8
					c-11.4,8.5-18.3,12-18.3,12c-18.9-20.3-44.5-48.5-44.5-48.5c-15.3-17.5,5.5-26.6,15-32.3c0,0,74.3-44.3,78.7-46.9
					c9.5-5.7,28.4-19.8,35.5,2.1c5.4,16.5,20.8,61.9,20.8,61.9c-3.9,2-12.4,6.9-15.3,8.3C146.1,92.9,133,98.8,128.3,98.8"/>
			</g>
			<g class="st1">
				<defs>
					<path id="SVGID_13_" d="M101.8,78.6c-1.1,0.3-2.1,0.7-3,1.2l0,0c-10.2,4.7-11.9,14.7-11.9,14.7s-2.1,9.9,6,14.6
						c6,3.5,10.6,2,12.9,5.2c1.6,2.9-4.5,8.2-6.9,10.1c-8.4,6.5-34.6,24.4-34.6,24.4s43.5,47.6,46.3,48.4c4,1.1,12.1,2.8,16.2,2.9h0
						c2.4,0,59.7-40.2,62.1-46.1c2-5-20.7-68.5-20.7-68.5s-23,13.3-31.1,17c-3,1.4-10.2,3.8-12.8,3.6c-2.6-0.2-3.2-3.7-3.2-3.7
						s-0.4-1.3,0.5-5.7c2.7-7.9-1.1-12.9-1.1-12.9s-3.9-6-12.5-6C106.2,77.6,104.1,77.9,101.8,78.6"/>
				</defs>
				<clipPath id="SVGID_14_">
					<use xlink:href="#SVGID_13_"  style="overflow:visible;"/>
				</clipPath>
				
					<linearGradient id="SVGID_15_" gradientUnits="userSpaceOnUse" x1="0.4" y1="2.4563" x2="2.142" y2="2.4563" gradientTransform="matrix(71.4605 -2.0374 2.0374 71.4605 30.5597 -34.0832)">
					<stop  offset="0" style="stop-color:#FFFFFF"/>
					<stop  offset="0.6" style="stop-color:#ADADAD"/>
					<stop  offset="1" style="stop-color:#ADADAD"/>
				</linearGradient>
				<polygon class="st5" points="64.5,203.6 194.5,199.9 190.9,74 60.9,77.7 				"/>
			</g>
			<g class="st1">
				<defs>
					<path id="SVGID_16_" d="M98.6,121.1c-8,7-34.2,24.6-34.2,24.6l0.1,2.9c0,0,26.2-17.9,34.6-24.4l-0.1,0.1
						c2.4-1.9,8.5-7.2,6.9-10.1c-0.5-0.7-1.1-1.2-1.9-1.5l-0.1-0.1C105.1,114.7,102.8,117.4,98.6,121.1"/>
				</defs>
				<clipPath id="SVGID_17_">
					<use xlink:href="#SVGID_16_"  style="overflow:visible;"/>
				</clipPath>
				
					<linearGradient id="SVGID_18_" gradientUnits="userSpaceOnUse" x1="1.1718" y1="7.0229" x2="2.9138" y2="7.0229" gradientTransform="matrix(24.4215 -0.6963 0.6963 24.4215 30.4476 -39.4939)">
					<stop  offset="0" style="stop-color:#6F6F6E"/>
					<stop  offset="3.563754e-02" style="stop-color:#8E8E8E"/>
					<stop  offset="8.869751e-02" style="stop-color:#B7B7B6"/>
					<stop  offset="0.1371" style="stop-color:#D4D4D4"/>
					<stop  offset="0.1786" style="stop-color:#E6E6E6"/>
					<stop  offset="0.2086" style="stop-color:#ECECEC"/>
					<stop  offset="0.4847" style="stop-color:#868686"/>
					<stop  offset="0.7485" style="stop-color:#C6C6C5"/>
					<stop  offset="1" style="stop-color:#575756"/>
				</linearGradient>
				<polygon class="st6" points="64.4,149.8 108.4,148.6 107.4,111.3 63.3,112.6 				"/>
			</g>
			<g class="st1">
				<defs>
					<path id="SVGID_19_" d="M103.5,75.6c-1.1,0.3-10.3,2.2-15,10.9c-3.1,5.8-1.9,12-1.9,12s-0.7-13,12.2-18.8l0,0
						c0.9-0.4,1.9-0.8,3-1.2c13-3.9,18.8,5,18.8,5s3.8,5.1,1.1,12.9c-0.9,4.4-0.5,5.7-0.5,5.7s0.7,3.6,3.2,3.7
						c2.5,0.2,9.8-2.2,12.8-3.6c8.1-3.7,31.1-17,31.1-17l0.7-4c0,0-22,14.3-30.1,18c-3,1.4-10.2,3.8-12.8,3.6
						c-2.6-0.2-3.2-3.7-3.2-3.7s-0.4-1.3,0.5-5.7c2.7-7.9-1.3-12.4-1.3-12.4S118,75,108.8,75C107.2,75,105.5,75.1,103.5,75.6"/>
				</defs>
				<clipPath id="SVGID_20_">
					<use xlink:href="#SVGID_19_"  style="overflow:visible;"/>
				</clipPath>
				
					<linearGradient id="SVGID_21_" gradientUnits="userSpaceOnUse" x1="0.8105" y1="3.2523" x2="2.5525" y2="3.2523" gradientTransform="matrix(47.6278 -1.3579 1.3579 47.6278 43.2665 -62.2652)">
					<stop  offset="0" style="stop-color:#6F6F6E"/>
					<stop  offset="3.563754e-02" style="stop-color:#8E8E8E"/>
					<stop  offset="8.869751e-02" style="stop-color:#B7B7B6"/>
					<stop  offset="0.1371" style="stop-color:#D4D4D4"/>
					<stop  offset="0.1786" style="stop-color:#E6E6E6"/>
					<stop  offset="0.2086" style="stop-color:#ECECEC"/>
					<stop  offset="0.4847" style="stop-color:#868686"/>
					<stop  offset="0.7485" style="stop-color:#C6C6C5"/>
					<stop  offset="1" style="stop-color:#575756"/>
				</linearGradient>
				<polygon class="st7" points="85.5,108.5 169.9,106.1 169,72.3 84.5,74.7 				"/>
			</g>
			<g class="st1">
				<defs>
					<rect id="SVGID_22_" x="10.9" y="0" width="178.2" height="200"/>
				</defs>
				<clipPath id="SVGID_23_">
					<use xlink:href="#SVGID_22_"  style="overflow:visible;"/>
				</clipPath>
				<g class="st8">
					<g>
						<defs>
							<rect id="SVGID_24_" x="74.6" y="-4.6" width="95.4" height="106.6"/>
						</defs>
						<clipPath id="SVGID_25_">
							<use xlink:href="#SVGID_24_"  style="overflow:visible;"/>
						</clipPath>
						<g class="st9">
							<defs>
								<path id="SVGID_26_" d="M110.9,17.7C109,18.9,94,27.8,77.5,37.6l18.6,37.1c13.9-7.2,25.5,2,25.5,2s6.9,6.1,5,13.4
									c-2.2,7.9,0.5,8.6,1.4,8.6h0.2c0.1,0,0.1,0,0.1,0c4.7,0,17.8-5.9,23.6-8.8c2.9-1.4,11.4-6.3,15.3-8.3
									c0,0-15.4-45.4-20.8-61.9C143.5,11,138.7,8,133.3,8C125.5,8,116.5,14.4,110.9,17.7"/>
							</defs>
							<clipPath id="SVGID_27_">
								<use xlink:href="#SVGID_26_"  style="overflow:visible;"/>
							</clipPath>
							<defs>
								<filter id="Adobe_OpacityMaskFilter" filterUnits="userSpaceOnUse" x="71.6" y="-7.3" width="101.5" height="112">
									<feColorMatrix  type="matrix" values="1 0 0 0 0  0 1 0 0 0  0 0 1 0 0  0 0 0 1 0"/>
								</filter>
							</defs>
							<mask maskUnits="userSpaceOnUse" x="71.6" y="-7.3" width="101.5" height="112" id="SVGID_28_">
								<g class="st10">
									<rect x="74.6" y="-4.6" class="st11" width="95.4" height="106.6"/>
									<g class="st12">
										<g>
											<defs>
												
													<rect id="SVGID_29_" x="76.1" y="-3.3" transform="matrix(0.9996 -2.849151e-02 2.849151e-02 0.9996 -1.3381 3.5061)" width="92.5" height="104"/>
											</defs>
											<clipPath id="SVGID_30_" class="st11">
												<use xlink:href="#SVGID_29_"  style="overflow:visible;"/>
											</clipPath>
											
												<linearGradient id="SVGID_31_" gradientUnits="userSpaceOnUse" x1="0.7009" y1="2.7043" x2="2.4429" y2="2.7043" gradientTransform="matrix(50.7004 -1.4455 1.4455 50.7004 38.4487 -86.1211)">
												<stop  offset="0" style="stop-color:#FFFFFF"/>
												<stop  offset="3.384378e-02" style="stop-color:#F3F3F3"/>
												<stop  offset="0.2268" style="stop-color:#B5B3B4"/>
												<stop  offset="0.4111" style="stop-color:#817E7F"/>
												<stop  offset="0.5818" style="stop-color:#585556"/>
												<stop  offset="0.7359" style="stop-color:#3B3738"/>
												<stop  offset="0.8682" style="stop-color:#292526"/>
												<stop  offset="0.9632" style="stop-color:#231F20"/>
												<stop  offset="1" style="stop-color:#231F20"/>
											</linearGradient>
											<polygon class="st13" points="74.7,104.7 173.1,101.9 170,-7.3 71.6,-4.5 											"/>
										</g>
									</g>
								</g>
							</mask>
							<g class="st14">
								<g>
									<defs>
										<rect id="SVGID_32_" x="74.6" y="-4.6" width="95.4" height="106.6"/>
									</defs>
									<clipPath id="SVGID_33_">
										<use xlink:href="#SVGID_32_"  style="overflow:visible;"/>
									</clipPath>
									<g class="st15">
										<defs>
											
												<rect id="SVGID_34_" x="76.1" y="-3.3" transform="matrix(0.9996 -2.849151e-02 2.849151e-02 0.9996 -1.3381 3.5061)" width="92.5" height="104"/>
										</defs>
										<clipPath id="SVGID_35_">
											<use xlink:href="#SVGID_34_"  style="overflow:visible;"/>
										</clipPath>
										
											<linearGradient id="SVGID_36_" gradientUnits="userSpaceOnUse" x1="0.7009" y1="2.7043" x2="2.4429" y2="2.7043" gradientTransform="matrix(50.7004 -1.4455 1.4455 50.7004 38.4487 -86.121)">
											<stop  offset="0" style="stop-color:#FFFFFF"/>
											<stop  offset="0.9632" style="stop-color:#FFFFFF"/>
											<stop  offset="1" style="stop-color:#FFFFFF"/>
										</linearGradient>
										<polygon class="st16" points="74.7,104.7 173.1,101.9 170,-7.3 71.6,-4.5 										"/>
									</g>
								</g>
							</g>
						</g>
					</g>
				</g>
				<g class="st8">
					<g>
						<defs>
							<rect id="SVGID_37_" x="96.1" y="70.7" width="98.1" height="108.4"/>
						</defs>
						<clipPath id="SVGID_38_">
							<use xlink:href="#SVGID_37_"  style="overflow:visible;"/>
						</clipPath>
						<g class="st17">
							<defs>
								<path id="SVGID_39_" d="M108.1,77.6c-2.6,0-5.7,0.6-9.1,2.1v0c0.1,0.3,10.8,21.6,28.8,53.3c16.5,29.1,33,43.5,33,43.5
									c2.5-1.5,24.9-16.8,27.9-22.5c2.5-4.8-20.2-68.7-20.2-68.7s-23,13.3-31.1,17c-3,1.4-10.2,3.8-12.8,3.6
									c-2.6-0.2-3.2-3.7-3.2-3.7s-0.4-1.3,0.5-5.7c2.7-7.9-1.1-12.9-1.1-12.9S116.7,77.6,108.1,77.6L108.1,77.6z"/>
							</defs>
							<clipPath id="SVGID_40_">
								<use xlink:href="#SVGID_39_"  style="overflow:visible;"/>
							</clipPath>
							<defs>
								<filter id="Adobe_OpacityMaskFilter_1_" filterUnits="userSpaceOnUse" x="93" y="67.9" width="104.3" height="114">
									<feColorMatrix  type="matrix" values="1 0 0 0 0  0 1 0 0 0  0 0 1 0 0  0 0 0 1 0"/>
								</filter>
							</defs>
							<mask maskUnits="userSpaceOnUse" x="93" y="67.9" width="104.3" height="114" id="SVGID_41_">
								<g class="st18">
									<rect x="96.1" y="70.7" class="st19" width="98.1" height="108.4"/>
									<g class="st12">
										<g>
											<defs>
												
													<rect id="SVGID_42_" x="97.6" y="72" transform="matrix(0.9996 -2.850593e-02 2.850593e-02 0.9996 -3.5018 4.1884)" width="95.1" height="105.8"/>
											</defs>
											<clipPath id="SVGID_43_" class="st19">
												<use xlink:href="#SVGID_42_"  style="overflow:visible;"/>
											</clipPath>
											
												<linearGradient id="SVGID_44_" gradientUnits="userSpaceOnUse" x1="0.8767" y1="3.3709" x2="2.6187" y2="3.3709" gradientTransform="matrix(50.3786 -1.4364 1.4364 50.3786 51.3408 -42.3696)">
												<stop  offset="0" style="stop-color:#FFFFFF"/>
												<stop  offset="3.384378e-02" style="stop-color:#F3F3F3"/>
												<stop  offset="0.2268" style="stop-color:#B5B3B4"/>
												<stop  offset="0.4111" style="stop-color:#817E7F"/>
												<stop  offset="0.5818" style="stop-color:#585556"/>
												<stop  offset="0.7359" style="stop-color:#3B3738"/>
												<stop  offset="0.8682" style="stop-color:#292526"/>
												<stop  offset="0.9632" style="stop-color:#231F20"/>
												<stop  offset="1" style="stop-color:#231F20"/>
											</linearGradient>
											<polygon class="st20" points="96.2,181.9 197.3,179 194.1,67.9 93,70.8 											"/>
										</g>
									</g>
								</g>
							</mask>
							<g class="st21">
								<g>
									<defs>
										<rect id="SVGID_45_" x="96.1" y="70.7" width="98.1" height="108.4"/>
									</defs>
									<clipPath id="SVGID_46_">
										<use xlink:href="#SVGID_45_"  style="overflow:visible;"/>
									</clipPath>
									<g class="st22">
										<defs>
											
												<rect id="SVGID_47_" x="97.6" y="72" transform="matrix(0.9996 -2.848764e-02 2.848764e-02 0.9996 -3.4996 4.1856)" width="95.1" height="105.8"/>
										</defs>
										<clipPath id="SVGID_48_">
											<use xlink:href="#SVGID_47_"  style="overflow:visible;"/>
										</clipPath>
										
											<linearGradient id="SVGID_49_" gradientUnits="userSpaceOnUse" x1="0.8767" y1="3.3709" x2="2.6187" y2="3.3709" gradientTransform="matrix(50.3786 -1.4364 1.4364 50.3786 51.3409 -42.3695)">
											<stop  offset="0" style="stop-color:#FFFFFF"/>
											<stop  offset="0.9632" style="stop-color:#FFFFFF"/>
											<stop  offset="1" style="stop-color:#FFFFFF"/>
										</linearGradient>
										<polygon class="st23" points="96.2,181.9 197.3,179 194.1,67.9 93,70.8 										"/>
									</g>
								</g>
							</g>
						</g>
					</g>
				</g>
			</g>
		</g>
	</g>
</g>
</svg>
